<svg xmlns="http://www.w3.org/2000/svg" viewBox="0 0 269.338 269.338"><path d="M253.141.464a4.999 4.999 0 0 0-5.637 1.002L100.371 148.598a5 5 0 0 0 0 7.071l.001.001-81.588 81.588c-7.314 7.314-7.314 19.174 0 26.49 7.316 7.314 19.086 7.588 26.49 0 10.979-10.979 41.229-56.027 80.51-82.667l15.601 15.601a5 5 0 0 0 7.072 0c51.618-51.619 78.083-100.688 91.196-132.762 14.309-35 16.293-57.568 16.371-58.511a5.002 5.002 0 0 0-2.883-4.945zM34.53 255.098a4.998 4.998 0 0 1-7.07 0 4.998 4.998 0 0 1 0-7.07 4.998 4.998 0 0 1 7.07 0 4.998 4.998 0 0 1 0 7.07z"/></svg>