<svg xmlns="http://www.w3.org/2000/svg" viewBox="0 0 344.83 344.83"><g fill="#030303"><path d="M98.909 154.683h-9.778l-64.39-61.395c-5.85-5.569-15.113-5.352-20.699.492-5.572 5.855-5.358 15.118.492 20.699l81.822 78.017v22.357H98.91v42.513c0 32.41 29.791 58.685 63.113 58.685h125.708c33.324 0 57.101-26.274 57.101-58.685V152.104H98.909v2.579zm183.062 117.494c25.782-9.584 18.309-57.312 17.52-78.457-.503-13.432 20.322-13.381 20.819 0 1.264 33.753 6.238 84.021-32.799 98.532-12.619 4.69-18.011-15.438-5.54-20.075zM153.367 31.415c-8.143 10.28-10.701 20.133-5.409 32.387 5.721 13.243 19.27 21.757 11.833 37.63-4.14 8.829 8.977 16.56 13.14 7.685 5.544-11.836 5.772-22.546-.071-34.28-5.492-11.035-18.601-20.19-8.729-32.661 6.019-7.611-4.674-18.453-10.764-10.761zM206.625 31.415c-8.137 10.28-10.704 20.133-5.409 32.387 5.724 13.243 19.275 21.757 11.837 37.63-4.141 8.829 8.971 16.56 13.134 7.685 5.547-11.836 5.775-22.546-.068-34.28-5.489-11.035-18.601-20.19-8.731-32.661 6.019-7.611-4.674-18.453-10.763-10.761zM259.888 31.415c-8.143 10.28-10.704 20.133-5.415 32.387 5.724 13.243 19.27 21.757 11.836 37.63-4.14 8.829 8.978 16.56 13.141 7.685 5.54-11.836 5.77-22.546-.075-34.28-5.488-11.035-18.601-20.19-8.726-32.661 6.016-7.611-4.671-18.453-10.761-10.761z"/></g></svg>