<svg viewBox="0 0 214 86" xmlns="http://www.w3.org/2000/svg" xmlns:xlink="http://www.w3.org/1999/xlink">
  <g id="Logo/L_Racine_Carre_CMYK_horiz_RENV" stroke="none" stroke-width="1" fill="none" fill-rule="evenodd">
    <g id="L_Racine_Carre_CMYK_horiz_RENV" fill="#E2C8AA">
      <path d="M106.62691,28.7595994 L106.62691,36.1570446 L109.159015,36.1570446 C112.351602,36.1570446 113.452406,34.4889474 113.452406,32.4180987 C113.452406,30.346212 112.378929,28.7595994 109.159015,28.7595994 L106.62691,28.7595994 Z M103.214162,25.6927711 L109.406503,25.6927711 C114.553209,25.6927711 117.140483,28.4637639 117.140483,32.4180987 C117.140483,34.3815124 116.122176,37.1519862 113.534901,38.3893053 C114.99353,39.6271434 115.406525,41.5905571 117.718469,41.5905571 L118.488774,41.5905571 L118.488774,44.5494314 C118.488774,44.5494314 117.773638,44.7108434 116.644993,44.7108434 C111.828785,44.7108434 112.103599,40.3802265 109.764328,39.0889303 C109.434345,39.1159189 109.103846,39.1159189 108.746021,39.1159189 L106.62691,39.1159189 L106.62691,44.6034084 L103.214162,44.6034084 L103.214162,25.6927711 Z"
        id="Fill-3"></path>
      <path d="M106.815531,34.6299413 L109.186,34.6299413 C112.577314,34.6299413 113.289165,32.6898131 113.289165,31.0621956 C113.289165,28.7475668 111.90859,27.5738584 109.186,27.5738584 L106.815531,27.5738584 L106.815531,34.6299413 Z M109.186,34.8758514 L106.694267,34.8758514 C106.626786,34.8758514 106.572497,34.8205216 106.572497,34.7528963 L106.572497,27.4509033 C106.572497,27.3832781 106.626786,27.3279483 106.694267,27.3279483 L109.186,27.3279483 C111.168833,27.3279483 113.532707,27.9760239 113.532707,31.0621956 C113.532707,33.5212966 111.988756,34.8758514 109.186,34.8758514 Z M109.781662,37.5245081 C109.801957,37.5245081 109.822252,37.5296312 109.84001,37.5393652 C110.711178,38.0214514 111.215512,38.8990431 111.749273,39.8283783 C112.666612,41.4237201 113.614394,43.073367 116.55262,43.073367 C117.404507,43.073367 118.019449,42.9775645 118.245232,42.9360672 L118.245232,40.2387408 L117.60898,40.2387408 C116.002115,40.2387408 115.298382,39.3155533 114.552536,38.3375484 C114.213608,37.8928609 113.86301,37.4328041 113.41398,37.0506188 C113.382015,37.0234663 113.365779,36.9819689 113.37136,36.9404716 C113.376434,36.8989743 113.402818,36.8631124 113.439856,36.8451814 C115.842798,35.6929902 116.918439,33.1104218 116.918439,31.0621956 C116.918439,26.9826495 114.118728,24.5466026 109.429542,24.5466026 L103.457704,24.5466026 L103.457704,42.9673183 L106.572497,42.9673183 L106.572497,37.6735911 C106.572497,37.6059658 106.626786,37.550636 106.694267,37.550636 L108.77959,37.550636 C109.125115,37.550636 109.451866,37.550636 109.772022,37.5245081 C109.775573,37.5245081 109.778617,37.5245081 109.781662,37.5245081 Z M116.55262,43.3192771 C113.474358,43.3192771 112.445903,41.5302811 111.538711,39.9518457 C111.028797,39.0645201 110.547295,38.2258642 109.754771,37.7724674 C109.436645,37.7965461 109.116997,37.7965461 108.77959,37.7965461 L106.815531,37.7965461 L106.815531,43.0902733 C106.815531,43.1578986 106.761241,43.2127161 106.694267,43.2127161 L103.335933,43.2127161 C103.268959,43.2127161 103.214162,43.1578986 103.214162,43.0902733 L103.214162,24.4236476 C103.214162,24.3560223 103.268959,24.3012048 103.335933,24.3012048 L109.429542,24.3012048 C114.271449,24.3012048 117.161981,26.8284434 117.161981,31.0621956 C117.161981,33.1401359 116.092428,35.7493446 113.709274,36.9850428 C114.112132,37.3564695 114.43381,37.7786152 114.745847,38.187953 C115.484082,39.1562241 116.121856,39.993343 117.60898,39.993343 L118.367003,39.993343 C118.434484,39.993343 118.488774,40.0481605 118.488774,40.1162981 L118.488774,43.0369928 C118.488774,43.0948841 118.449198,43.1440662 118.393894,43.156874 C118.364466,43.163534 117.663777,43.3192771 116.55262,43.3192771 Z"
        id="Fill-4"></path>
      <path d="M128.210922,36.907807 L134.113727,36.907807 L131.162583,30.4166335 L128.210922,36.907807 Z M125.314553,43.3192771 L121.728843,43.3192771 L130.831348,24.3012048 L131.603885,24.3012048 L140.70639,43.3192771 L137.037484,43.3192771 L135.327567,39.5638988 L126.997082,39.5638988 L125.314553,43.3192771 Z"
        id="Fill-5"></path>
      <path d="M128.439955,36.7461 L133.88612,36.7461 L131.163293,30.7563652 L128.439955,36.7461 Z M134.076382,36.9908188 L128.249694,36.9908188 C128.207867,36.9908188 128.1691,36.9698721 128.146657,36.9346203 C128.124213,36.8998794 128.121152,36.8554316 128.138495,36.8176253 L131.051584,30.4094673 C131.071988,30.3655304 131.114835,30.337942 131.163293,30.337942 C131.211241,30.337942 131.254598,30.3655304 131.274491,30.4094673 L134.18758,36.8176253 C134.204923,36.8554316 134.201862,36.8998794 134.179419,36.9346203 C134.156975,36.9698721 134.117698,36.9908188 134.076382,36.9908188 Z M137.041499,43.0745583 L140.38969,43.0745583 L131.521882,24.5459236 L130.913352,24.5459236 L122.045543,43.0745583 L125.31161,43.0745583 L126.940308,39.4400502 C126.959691,39.3956023 127.003559,39.3675031 127.051507,39.3675031 L135.274569,39.3675031 C135.322517,39.3675031 135.365874,39.3956023 135.385767,39.4390284 L137.041499,43.0745583 Z M140.584032,43.3192771 L136.962436,43.3192771 C136.914998,43.3192771 136.871131,43.2916888 136.851238,43.2477518 L135.196016,39.6127327 L127.13108,39.6127327 L125.502382,43.2472409 C125.482489,43.2911779 125.438621,43.3192771 125.390673,43.3192771 L121.851201,43.3192771 C121.808864,43.3192771 121.770098,43.2978195 121.747654,43.2625677 C121.725211,43.2268051 121.72266,43.1818463 121.741023,43.1440401 L130.726151,24.3706866 C130.746554,24.3282823 130.789401,24.3012048 130.836329,24.3012048 L131.598904,24.3012048 C131.645832,24.3012048 131.688679,24.3282823 131.709082,24.3706866 L140.69421,43.1440401 C140.712573,43.1818463 140.710022,43.2268051 140.687579,43.2625677 C140.665135,43.2978195 140.625859,43.3192771 140.584032,43.3192771 Z"
        id="Fill-6"></path>
      <path d="M161.072539,43.0544121 C161.072539,43.0544121 158.397933,44.7108434 154.195532,44.7108434 C147.201256,44.7108434 142.557858,40.330888 142.557858,34.4922115 C142.557858,28.7927445 147.583342,24.3012048 153.696177,24.3012048 C158.221755,24.3012048 160.98445,25.9007606 160.98445,25.9007606 L159.720371,28.8767036 C159.720371,28.8767036 156.987406,27.5859005 154.313351,27.5859005 C149.464045,27.5859005 146.495992,30.5049679 146.495992,34.5480036 C146.495992,38.5065386 149.669953,41.425606 153.960444,41.425606 C157.457582,41.425606 159.955459,40.0784691 159.955459,40.0784691 L161.072539,43.0544121"
        id="Fill-7"></path>
      <path d="M153.206764,24.5574084 C147.223418,24.5574084 142.355538,29.0144952 142.355538,34.4926523 C142.355538,40.3580566 147.020409,44.4546398 153.699089,44.4546398 C157.333172,44.4546398 159.824107,43.1688079 160.319688,42.8912095 L159.306813,40.1885022 C158.743381,40.4612868 156.458169,41.4673807 153.467311,41.4673807 C149.12758,41.4673807 145.97768,38.5576781 145.97768,34.5477441 C145.97768,30.3591629 149.127037,27.5446675 153.815249,27.5446675 C156.130315,27.5446675 158.513774,28.5277619 159.078292,28.7759424 L160.226868,26.0662818 C159.699804,25.7918926 157.111164,24.5574084 153.206764,24.5574084 Z M153.699089,44.7108434 C146.866795,44.7108434 142.094991,40.5088904 142.094991,34.4926523 C142.094991,28.8727542 147.079575,24.3012048 153.206764,24.3012048 C157.652884,24.3012048 160.430963,25.8828208 160.458646,25.8988669 C160.514555,25.9309592 160.537353,25.9994228 160.512384,26.0587936 L159.266645,28.9973793 C159.252532,29.0300065 159.225935,29.0551455 159.192824,29.0679824 C159.158627,29.0802844 159.121716,29.0786798 159.090233,29.0637034 C159.063093,29.0508665 156.390319,27.8014059 153.815249,27.8014059 C149.282823,27.8014059 146.238226,30.5121363 146.238226,34.5477441 C146.238226,38.4084488 149.27848,41.2111771 153.467311,41.2111771 C156.839219,41.2111771 159.291071,39.9092991 159.315498,39.8959273 C159.349152,39.8788114 159.388234,39.8761371 159.423516,39.8884391 C159.459341,39.9018109 159.487024,39.9296243 159.500052,39.9643909 L160.601404,42.9029767 C160.623116,42.9596731 160.600861,43.0238577 160.548752,43.05595 C160.522154,43.072531 157.832553,44.7108434 153.699089,44.7108434 Z"
        id="Fill-8"></path>
      <polygon id="Fill-9" points="165.238342 44.7108434 168.941278 44.7108434 168.941278 25.6927711 165.238342 25.6927711"></polygon>
      <path d="M165.488717,43.0724966 L168.690903,43.0724966 L168.690903,24.5479854 L165.488717,24.5479854 L165.488717,43.0724966 Z M168.816091,43.3192771 L165.363529,43.3192771 C165.294676,43.3192771 165.238342,43.2641508 165.238342,43.1961444 L165.238342,24.4243375 C165.238342,24.3563312 165.294676,24.3012048 165.363529,24.3012048 L168.816091,24.3012048 C168.884944,24.3012048 168.941278,24.3563312 168.941278,24.4243375 L168.941278,43.1961444 C168.941278,43.2641508 168.884944,43.3192771 168.816091,43.3192771 Z"
        id="Fill-10"></path>
      <polyline id="Fill-11" points="176.810017 24.3012048 177.896851 24.3012048 190.017496 36.4009908 190.017496 24.4078858 193.47323 24.4078858 193.47323 43.3192771 192.553441 43.3192771 180.265229 31.5400494 180.265229 43.1857971 176.810017 43.1857971 176.810017 24.3012048"></polyline>
      <path d="M192.494523,43.0750774 L193.226882,43.0750774 L193.226882,24.6507157 L190.0691,24.6507157 L190.0691,36.3677245 C190.0691,36.4170732 190.039271,36.4618431 189.99247,36.4806669 C189.946697,36.4989819 189.893211,36.4882981 189.858238,36.4537032 L177.95227,24.5454046 L177.05688,24.5454046 L177.05688,42.9433113 L180.214147,42.9433113 L180.214147,31.5691996 C180.214147,31.5198509 180.243976,31.4755897 180.289234,31.456766 C180.335521,31.438451 180.387979,31.4470997 180.423466,31.4816947 L192.494523,43.0750774 Z M193.350313,43.3192771 L192.444122,43.3192771 C192.412236,43.3192771 192.381378,43.3065584 192.358235,43.2846821 L180.461009,31.8576605 L180.461009,43.0654111 C180.461009,43.1325661 180.405465,43.1870022 180.337578,43.1870022 L176.933448,43.1870022 C176.865561,43.1870022 176.810017,43.1325661 176.810017,43.0654111 L176.810017,24.4233047 C176.810017,24.3561498 176.865561,24.3012048 176.933448,24.3012048 L178.004214,24.3012048 C178.037129,24.3012048 178.068501,24.3144323 178.091645,24.337326 L189.822752,36.0706148 L189.822752,24.5286158 C189.822752,24.4614609 189.877782,24.4070247 189.945669,24.4070247 L193.350313,24.4070247 C193.418149,24.4070247 193.47323,24.4614609 193.47323,24.5286158 L193.47323,43.1971772 C193.47323,43.2643322 193.418149,43.3192771 193.350313,43.3192771 Z"
        id="Fill-12"></path>
      <polyline id="Fill-13" points="200.416235 25.6927711 212.913644 25.6927711 212.913644 28.7770226 203.807247 28.7770226 203.807247 34.1062168 212.065763 34.1062168 212.065763 37.081901 203.807247 37.081901 203.807247 41.6265918 212.913644 41.6265918 212.913644 44.7108434 200.416235 44.7108434 200.416235 25.6927711"></polyline>
      <path d="M200.674778,43.0724966 L213.580295,43.0724966 L213.580295,40.2754788 L204.117703,40.2754788 C204.04593,40.2754788 203.988134,40.2198373 203.988134,40.1518309 L203.988134,35.6659894 C203.988134,35.597983 204.04593,35.5423415 204.117703,35.5423415 L212.687779,35.5423415 L212.687779,32.8524852 L204.117703,32.8524852 C204.04593,32.8524852 203.988134,32.7968437 203.988134,32.7288373 L203.988134,27.468651 C203.988134,27.4006447 204.04593,27.3450031 204.117703,27.3450031 L213.580295,27.3450031 L213.580295,24.5479854 L200.674778,24.5479854 L200.674778,43.0724966 Z M213.709864,43.3192771 L200.545803,43.3192771 C200.474031,43.3192771 200.416235,43.2641508 200.416235,43.1961444 L200.416235,24.4243375 C200.416235,24.3563312 200.474031,24.3012048 200.545803,24.3012048 L213.709864,24.3012048 C213.781097,24.3012048 213.839378,24.3563312 213.839378,24.4243375 L213.839378,27.468651 C213.839378,27.5366573 213.781097,27.5922989 213.709864,27.5922989 L204.247217,27.5922989 L204.247217,32.6051895 L212.816754,32.6051895 C212.888527,32.6051895 212.946268,32.6603158 212.946268,32.7288373 L212.946268,35.6659894 C212.946268,35.7339957 212.888527,35.7896372 212.816754,35.7896372 L204.247217,35.7896372 L204.247217,40.0281831 L213.709864,40.0281831 C213.781097,40.0281831 213.839378,40.0838246 213.839378,40.1518309 L213.839378,43.1961444 C213.839378,43.2641508 213.781097,43.3192771 213.709864,43.3192771 Z"
        id="Fill-14"></path>
      <path d="M119.414508,70.4224236 C119.414508,70.4224236 116.940951,72.0783133 113.053857,72.0783133 C106.583585,72.0783133 102.288428,67.6988996 102.288428,61.8596814 C102.288428,56.160756 106.9371,51.6686747 112.591245,51.6686747 C116.77783,51.6686747 119.33321,53.2687722 119.33321,53.2687722 L118.164092,56.2447151 C118.164092,56.2447151 115.635987,54.9533704 113.162429,54.9533704 C108.676878,54.9533704 105.931103,57.8729795 105.931103,61.9160152 C105.931103,65.8745501 108.867272,68.7936176 112.836188,68.7936176 C116.0708,68.7936176 118.381761,67.4464807 118.381761,67.4464807 L119.414508,70.4224236"
        id="Fill-15"></path>
      <path d="M112.565957,51.9254064 C107.035641,51.9254064 102.53654,56.3823764 102.53654,61.8598551 C102.53654,67.7251057 106.848006,71.8215815 113.021863,71.8215815 C116.384299,71.8215815 118.682955,70.5368531 119.139378,70.2592619 L118.203788,67.55823 C117.672932,67.8347515 115.563978,68.8349356 112.807349,68.8349356 C108.857197,68.8349356 105.878301,65.8600565 105.878301,61.9154803 C105.878301,57.7264741 108.792068,54.9125872 113.128861,54.9125872 C115.263659,54.9125872 117.461003,55.8892375 117.992376,56.1416904 L119.054089,53.4331706 C118.567686,53.1593234 116.174955,51.9254064 112.565957,51.9254064 Z M113.021863,72.0783133 C106.70224,72.0783133 102.288428,67.8764704 102.288428,61.8598551 C102.288428,56.2406391 106.898662,51.6686747 112.565957,51.6686747 C116.678932,51.6686747 119.248961,53.2513189 119.274806,53.2673646 C119.326496,53.299991 119.348206,53.3668482 119.324945,53.4251477 L118.172774,56.3636564 C118.160369,56.3968176 118.134524,56.4230256 118.102476,56.4353274 C118.069394,56.4476291 118.034245,56.4460245 118.003231,56.4305136 C117.97842,56.4176771 115.50867,55.1687841 113.128861,55.1687841 C108.940418,55.1687841 106.126413,57.8799783 106.126413,61.9154803 C106.126413,65.7760839 108.936283,68.5782039 112.807349,68.5782039 C115.922707,68.5782039 118.189315,67.2779646 118.211542,67.2645931 C118.243073,67.2458731 118.281323,67.2426639 118.315956,67.2560354 C118.350071,67.2694068 118.37695,67.2972194 118.389355,67.3330549 L119.407132,70.2715636 C119.426774,70.3271888 119.406098,70.3897672 119.358027,70.4223935 C119.333215,70.4389741 116.845374,72.0783133 113.021863,72.0783133 Z"
        id="Fill-16"></path>
      <path d="M126.822561,64.2757945 L132.725303,64.2757945 L129.773666,57.7841034 L126.822561,64.2757945 Z M123.926273,70.686747 L120.340242,70.686747 L129.443163,51.6686747 L130.2154,51.6686747 L139.317789,70.686747 L135.649265,70.686747 L133.938742,66.9313686 L125.60859,66.9313686 L123.926273,70.686747 Z"
        id="Fill-17"></path>
      <path d="M127.05572,64.1132356 L132.493606,64.1132356 L129.7744,58.1313248 L127.05572,64.1132356 Z M132.68686,64.3584587 L126.862466,64.3584587 C126.819929,64.3584587 126.780018,64.3375125 126.756386,64.3027726 C126.73328,64.2680326 126.729604,64.2240968 126.746934,64.1862916 L129.659393,57.7783058 C129.69983,57.6894124 129.849496,57.6894124 129.889932,57.7783058 L132.802392,64.1862916 C132.819722,64.2240968 132.816046,64.2680326 132.792939,64.3027726 C132.769308,64.3375125 132.729397,64.3584587 132.68686,64.3584587 Z M135.653935,70.4420348 L138.994388,70.4420348 L130.129924,51.9138978 L129.528107,51.9138978 L120.664168,70.4420348 L123.922174,70.4420348 L125.549076,66.8081351 C125.569031,66.7636885 125.614719,66.7350791 125.664608,66.7350791 L133.884193,66.7350791 C133.934082,66.7350791 133.979244,66.7631776 133.999725,66.8076243 L135.653935,70.4420348 Z M139.191843,70.686747 L135.572012,70.686747 C135.522123,70.686747 135.47696,70.6581376 135.45648,70.6136909 L133.80227,66.9797913 L125.747581,66.9797913 L124.120154,70.6131801 C124.100198,70.6581376 124.05451,70.686747 124.004622,70.686747 L120.466188,70.686747 C120.423126,70.686747 120.383215,70.66529 120.360109,70.6300391 C120.337002,70.5947883 120.333851,70.5503416 120.351706,70.5125364 L129.333803,51.7396872 C129.354284,51.6962623 129.398921,51.6686747 129.448285,51.6686747 L130.210272,51.6686747 C130.25911,51.6686747 130.303747,51.6962623 130.324228,51.7396872 L139.306325,70.5125364 C139.32418,70.5503416 139.321029,70.5947883 139.297922,70.6300391 C139.274816,70.66529 139.234905,70.686747 139.191843,70.686747 Z"
        id="Fill-18"></path>
      <path d="M147.359285,54.735503 L147.359285,62.1329482 L149.891159,62.1329482 C153.083614,62.1329482 154.184936,60.464851 154.184936,58.3934833 C154.184936,56.3221156 153.111226,54.735503 149.891159,54.735503 L147.359285,54.735503 Z M143.946459,51.6686747 L150.138611,51.6686747 C155.285197,51.6686747 157.872827,54.4396675 157.872827,58.3934833 C157.872827,60.356897 156.854342,63.1278898 154.267243,64.3652089 C155.725938,65.602528 156.138536,67.5659417 158.45057,67.5659417 L159.221071,67.5659417 L159.221071,70.525335 C159.221071,70.525335 158.505795,70.686747 157.37686,70.686747 C152.561096,70.686747 152.836161,66.3556111 150.496514,65.064834 C150.166224,65.0918225 149.835933,65.0918225 149.478561,65.0918225 L147.359285,65.0918225 L147.359285,70.578793 L143.946459,70.578793 L143.946459,51.6686747 Z"
        id="Fill-19"></path>
      <path d="M147.553973,61.9979235 L149.91894,61.9979235 C153.306043,61.9979235 154.016891,60.057283 154.016891,58.4296655 C154.016891,56.115549 152.638024,54.9418406 149.91894,54.9418406 L147.553973,54.9418406 L147.553973,61.9979235 Z M149.91894,62.2433213 L147.428622,62.2433213 C147.359678,62.2433213 147.30327,62.1885038 147.30327,62.1208785 L147.30327,54.8188855 C147.30327,54.7507479 147.359678,54.6959305 147.428622,54.6959305 L149.91894,54.6959305 C152.763898,54.6959305 154.267072,55.9869585 154.267072,58.4296655 C154.267072,60.8892788 152.723159,62.2433213 149.91894,62.2433213 Z M150.51436,64.891978 C150.535774,64.891978 150.557188,64.8976134 150.575991,64.9078597 C151.447184,65.3904582 151.951202,66.2680499 152.485513,67.1973851 C153.401102,68.7922146 154.348551,70.4413492 157.281778,70.4413492 C158.12999,70.4413492 158.742646,70.3455467 158.970368,70.3040494 L158.970368,67.606723 L158.337865,67.606723 C156.728664,67.606723 156.024606,66.6825109 155.279286,65.7039936 C154.940315,65.2593062 154.589853,64.7992494 154.141198,64.4170641 C154.109338,64.3899115 154.093669,64.3489265 154.098892,64.3084538 C154.104115,64.2674688 154.130752,64.2316069 154.168358,64.2136759 C156.569363,63.0614847 157.644252,60.478404 157.644252,58.4296655 C157.644252,54.3501194 154.847346,51.9145848 150.162331,51.9145848 L144.197163,51.9145848 L144.197163,70.3353005 L147.30327,70.3353005 L147.30327,65.0415733 C147.30327,64.973948 147.359678,64.9186182 147.428622,64.9186182 L149.513114,64.9186182 C149.858353,64.9186182 150.184267,64.9186182 150.503914,64.8924903 C150.50757,64.891978 150.510703,64.891978 150.51436,64.891978 Z M157.281778,70.686747 C154.202307,70.686747 153.173902,68.8972387 152.267192,67.3182909 C151.757429,66.43199 151.276393,65.5938464 150.485633,65.1404496 C150.168598,65.1645283 149.849996,65.1645283 149.513114,65.1645283 L147.553973,65.1645283 L147.553973,70.4577432 C147.553973,70.5258808 147.497565,70.5806983 147.428622,70.5806983 L144.071811,70.5806983 C144.002868,70.5806983 143.946459,70.5258808 143.946459,70.4577432 L143.946459,51.7916297 C143.946459,51.7240045 144.002868,51.6686747 144.071811,51.6686747 L150.162331,51.6686747 C155.004035,51.6686747 157.894433,54.1964256 157.894433,58.4296655 C157.894433,60.5076058 156.825811,63.1168144 154.442564,64.3525127 C154.845779,64.7244517 155.167514,65.1465974 155.479849,65.5564475 C156.217334,66.5247186 156.854538,67.3613252 158.337865,67.3613252 L159.095719,67.3613252 C159.164663,67.3613252 159.221071,67.4161427 159.221071,67.4837679 L159.221071,70.404975 C159.221071,70.462354 159.180332,70.511536 159.123923,70.5243439 C159.094675,70.5315162 158.393228,70.686747 157.281778,70.686747 Z"
        id="Fill-20"></path>
      <path d="M166.799168,54.735503 L166.799168,62.1329482 L169.331573,62.1329482 C172.524028,62.1329482 173.62482,60.464851 173.62482,58.3934833 C173.62482,56.3221156 172.551641,54.735503 169.331573,54.735503 L166.799168,54.735503 Z M163.386874,51.6686747 L169.579026,51.6686747 C174.725611,51.6686747 177.31271,54.4396675 177.31271,58.3934833 C177.31271,60.356897 176.294757,63.1278898 173.707658,64.3652089 C175.166353,65.602528 175.57895,67.5659417 177.890984,67.5659417 L178.661485,67.5659417 L178.661485,70.525335 C178.661485,70.525335 177.94621,70.686747 176.817274,70.686747 C172.000979,70.686747 172.276045,66.3556111 169.936929,65.064834 C169.606638,65.0918225 169.276348,65.0918225 168.918444,65.0918225 L166.799168,65.0918225 L166.799168,70.578793 L163.386874,70.578793 L163.386874,51.6686747 Z"
        id="Fill-21"></path>
      <path d="M166.993865,61.9979235 L169.359354,61.9979235 C172.745936,61.9979235 173.456784,60.057283 173.456784,58.4296655 C173.456784,56.115549 172.078439,54.9418406 169.359354,54.9418406 L166.993865,54.9418406 L166.993865,61.9979235 Z M169.359354,62.2433213 L166.868514,62.2433213 C166.79957,62.2433213 166.743685,62.1885038 166.743685,62.1208785 L166.743685,54.8188855 C166.743685,54.7507479 166.79957,54.6959305 166.868514,54.6959305 L169.359354,54.6959305 C172.20379,54.6959305 173.707487,55.9869585 173.707487,58.4296655 C173.707487,60.8892788 172.163051,62.2433213 169.359354,62.2433213 Z M169.954774,64.891978 C169.976188,64.891978 169.997602,64.8976134 170.016405,64.9078597 C170.887076,65.3904582 171.391616,66.2680499 171.925405,67.1973851 C172.841516,68.7922146 173.788443,70.4413492 176.722192,70.4413492 C177.570404,70.4413492 178.183582,70.3455467 178.410782,70.3040494 L178.410782,67.606723 L177.778279,67.606723 C176.169078,67.606723 175.46502,66.6825109 174.719701,65.7039936 C174.380729,65.2593062 174.030267,64.7992494 173.581091,64.4170641 C173.54923,64.3899115 173.533561,64.3489265 173.538784,64.3084538 C173.54453,64.2674688 173.570645,64.2316069 173.60825,64.2136759 C176.009255,63.0614847 177.084145,60.478404 177.084145,58.4296655 C177.084145,54.3501194 174.28776,51.9145848 169.602745,51.9145848 L163.637055,51.9145848 L163.637055,70.3353005 L166.743685,70.3353005 L166.743685,65.0415733 C166.743685,64.973948 166.79957,64.9186182 166.868514,64.9186182 L168.953006,64.9186182 C169.298767,64.9186182 169.624682,64.9186182 169.944328,64.8924903 C169.947984,64.891978 169.951118,64.891978 169.954774,64.891978 Z M176.722192,70.686747 C173.642199,70.686747 172.614317,68.8972387 171.707085,67.3182909 C171.197844,66.4314776 170.716285,65.5938464 169.926048,65.1404496 C169.609013,65.1645283 169.289888,65.1645283 168.953006,65.1645283 L166.993865,65.1645283 L166.993865,70.4577432 C166.993865,70.5258808 166.93798,70.5806983 166.868514,70.5806983 L163.512225,70.5806983 C163.44276,70.5806983 163.386874,70.5258808 163.386874,70.4577432 L163.386874,51.7916297 C163.386874,51.7240045 163.44276,51.6686747 163.512225,51.6686747 L169.602745,51.6686747 C174.44445,51.6686747 177.334848,54.1964256 177.334848,58.4296655 C177.334848,60.5076058 176.265703,63.1168144 173.882457,64.3525127 C174.286193,64.7244517 174.607929,65.1471097 174.920263,65.5569599 C175.657748,66.5247186 176.294952,67.3613252 177.778279,67.3613252 L178.536134,67.3613252 C178.605077,67.3613252 178.661485,67.4161427 178.661485,67.4837679 L178.661485,70.404975 C178.661485,70.462354 178.621268,70.511536 178.564338,70.5243439 C178.535089,70.5315162 177.833643,70.686747 176.722192,70.686747 Z"
        id="Fill-22"></path>
      <polyline id="Fill-23" points="182.827288 51.6686747 195.324698 51.6686747 195.324698 54.7530109 186.2185 54.7530109 186.2185 60.0818293 194.477291 60.0818293 194.477291 63.0581172 186.2185 63.0581172 186.2185 67.6029328 195.324698 67.6029328 195.324698 70.686747 182.827288 70.686747 182.827288 51.6686747"></polyline>
      <path d="M183.075013,70.4399731 L195.076973,70.4399731 L195.076973,67.6425159 L186.27526,67.6425159 C186.206476,67.6425159 186.151139,67.5873911 186.151139,67.5193866 L186.151139,63.0336666 C186.151139,62.9651469 186.206476,62.910022 186.27526,62.910022 L194.245881,62.910022 L194.245881,60.2197234 L186.27526,60.2197234 C186.206476,60.2197234 186.151139,60.1645986 186.151139,60.0960789 L186.151139,54.8365503 C186.151139,54.7680306 186.206476,54.7129057 186.27526,54.7129057 L195.076973,54.7129057 L195.076973,51.9159637 L183.075013,51.9159637 L183.075013,70.4399731 Z M195.200577,70.686747 L182.951409,70.686747 C182.882626,70.686747 182.827288,70.6316221 182.827288,70.5631025 L182.827288,51.7923192 C182.827288,51.7243147 182.882626,51.6686747 182.951409,51.6686747 L195.200577,51.6686747 C195.269361,51.6686747 195.324698,51.7243147 195.324698,51.7923192 L195.324698,54.8365503 C195.324698,54.9045547 195.269361,54.9601948 195.200577,54.9601948 L186.398863,54.9601948 L186.398863,59.9729496 L194.370002,59.9729496 C194.438269,59.9729496 194.494123,60.0280744 194.494123,60.0960789 L194.494123,63.0336666 C194.494123,63.101671 194.438269,63.1573111 194.370002,63.1573111 L186.398863,63.1573111 L186.398863,67.3957421 L195.200577,67.3957421 C195.269361,67.3957421 195.324698,67.4508669 195.324698,67.5193866 L195.324698,70.5631025 C195.324698,70.6316221 195.269361,70.686747 195.200577,70.686747 Z"
        id="Fill-24"></path>
      <polyline id="Fill-25" points="200.416235 51.6686747 212.913644 51.6686747 212.913644 54.7530109 203.807251 54.7530109 203.807251 60.0818293 212.065745 60.0818293 212.065745 63.0581172 203.807251 63.0581172 203.807251 67.6029328 212.913644 67.6029328 212.913644 70.686747 200.416235 70.686747 200.416235 51.6686747"></polyline>
      <path d="M200.664466,70.4399731 L212.665413,70.4399731 L212.665413,67.6425159 L203.864012,67.6425159 C203.795283,67.6425159 203.739948,67.5873911 203.739948,67.5193866 L203.739948,63.0336666 C203.739948,62.9651469 203.795283,62.910022 203.864012,62.910022 L211.834355,62.910022 L211.834355,60.2197234 L203.864012,60.2197234 C203.795283,60.2197234 203.739948,60.1645986 203.739948,60.0960789 L203.739948,54.8365503 C203.739948,54.7680306 203.795283,54.7129057 203.864012,54.7129057 L212.665413,54.7129057 L212.665413,51.9159637 L200.664466,51.9159637 L200.664466,70.4399731 Z M212.789529,70.686747 L200.540351,70.686747 C200.472087,70.686747 200.416235,70.6316221 200.416235,70.5631025 L200.416235,51.7923192 C200.416235,51.7243147 200.472087,51.6686747 200.540351,51.6686747 L212.789529,51.6686747 C212.857792,51.6686747 212.913644,51.7243147 212.913644,51.7923192 L212.913644,54.8365503 C212.913644,54.9045547 212.857792,54.9601948 212.789529,54.9601948 L203.988179,54.9601948 L203.988179,59.9729496 L211.958471,59.9729496 C212.027252,59.9729496 212.082535,60.0280744 212.082535,60.0960789 L212.082535,63.0336666 C212.082535,63.101671 212.027252,63.1573111 211.958471,63.1573111 L203.988179,63.1573111 L203.988179,67.3957421 L212.789529,67.3957421 C212.857792,67.3957421 212.913644,67.4508669 212.913644,67.5193866 L212.913644,70.5631025 C212.913644,70.6316221 212.857792,70.686747 212.789529,70.686747 Z"
        id="Fill-26"></path>
      <polyline id="Fill-27" points="186.194576 53.9879518 185.604491 52.2665855 192.097108 48.8855422 193.47323 52.7885712 186.194576 53.9879518"></polyline>
      <path d="M185.895745,52.2902068 L186.390253,53.7031216 L193.166526,52.6093064 L191.941593,49.2070748 L185.895745,52.2902068 Z M186.304956,53.9879518 C186.25097,53.9879518 186.201843,53.9531205 186.183488,53.8991882 L185.612321,52.2688585 C185.589647,52.2042521 185.617719,52.1317805 185.677103,52.1014436 L191.955629,48.899211 C191.98802,48.8829189 192.02581,48.8806718 192.060361,48.8952784 C192.094372,48.9093233 192.120825,48.9374131 192.133782,48.973368 L193.465067,52.6694185 C193.478563,52.7076206 193.475324,52.7497552 193.455349,52.7851483 C193.435914,52.8199796 193.401903,52.8441368 193.363574,52.8503166 L186.324931,53.9862664 C186.317912,53.98739 186.311434,53.9879518 186.304956,53.9879518 Z"
        id="Fill-28"></path>
      <path d="M118.488774,11.9155712 C118.488774,11.8423895 118.553408,11.7771084 118.641444,11.7771084 L119.379166,11.7771084 C119.459401,11.7771084 119.531279,11.8423895 119.531279,11.9155712 L119.531279,16.0052375 L121.57673,16.0052375 C121.664766,16.0052375 121.728843,16.0705692 121.728843,16.1437003 L121.728843,16.7412579 C121.728843,16.8141863 121.664766,16.8795181 121.57673,16.8795181 L118.641444,16.8795181 C118.553408,16.8795181 118.488774,16.8141863 118.488774,16.7412579 L118.488774,11.9155712"
        id="Fill-29"></path>
      <path d="M126.893716,15.1621219 L126.130022,13.5810809 L126.107217,13.5810809 L125.359434,15.1621219 L126.893716,15.1621219 Z M123.595513,16.6927849 L125.969859,11.8563951 C125.992663,11.8134565 126.030848,11.7771084 126.099262,11.7771084 L126.175632,11.7771084 C126.252001,11.7771084 126.282761,11.8134565 126.305566,11.8563951 L128.656577,16.6927849 C128.702186,16.7866508 128.641727,16.8795181 128.527173,16.8795181 L127.862653,16.8795181 C127.748629,16.8795181 127.695065,16.8365794 127.6415,16.7357235 L127.267608,15.9597822 L124.985011,15.9597822 L124.61112,16.7357235 C124.58036,16.8081201 124.511415,16.8795181 124.389966,16.8795181 L123.725447,16.8795181 C123.610892,16.8795181 123.549903,16.7866508 123.595513,16.6927849 Z"
        id="Fill-30"></path>
      <path d="M134.226252,11.9155712 C134.226252,11.8423895 134.293315,11.7771084 134.38466,11.7771084 L137.771358,11.7771084 C137.863281,11.7771084 137.929188,11.8423895 137.929188,11.9155712 L137.929188,12.5130275 C137.929188,12.5862092 137.863281,12.6520981 137.771358,12.6520981 L135.307937,12.6520981 L135.307937,14.0223935 L137.363775,14.0223935 C137.447026,14.0223935 137.521605,14.0876746 137.521605,14.1608563 L137.521605,14.7583126 C137.521605,14.8314943 137.447026,14.8968261 137.363775,14.8968261 L135.307937,14.8968261 L135.307937,16.7412579 C135.307937,16.8141863 135.233358,16.8795181 135.150107,16.8795181 L134.38466,16.8795181 C134.293315,16.8795181 134.226252,16.8141863 134.226252,16.7412579 L134.226252,11.9155712"
        id="Fill-31"></path>
      <path d="M140.243523,11.9155712 C140.243523,11.8423895 140.310009,11.7771084 140.401353,11.7771084 L143.788629,11.7771084 C143.879974,11.7771084 143.946459,11.8423895 143.946459,11.9155712 L143.946459,12.5130275 C143.946459,12.5862092 143.879974,12.6520981 143.788629,12.6520981 L141.325208,12.6520981 L141.325208,13.8475678 L143.380468,13.8475678 C143.464297,13.8475678 143.538876,13.9129502 143.538876,13.9860812 L143.538876,14.5907798 C143.538876,14.6712036 143.464297,14.7292932 143.380468,14.7292932 L141.325208,14.7292932 L141.325208,16.0052375 L143.788629,16.0052375 C143.879974,16.0052375 143.946459,16.0705692 143.946459,16.1437003 L143.946459,16.7412579 C143.946459,16.8141863 143.879974,16.8795181 143.788629,16.8795181 L140.401353,16.8795181 C140.310009,16.8795181 140.243523,16.8141863 140.243523,16.7412579 L140.243523,11.9155712"
        id="Fill-32"></path>
      <path d="M149.267985,14.1022097 C149.643346,14.1022097 149.969019,13.7671946 149.969019,13.3589977 C149.969019,12.9725782 149.643346,12.6520981 149.267985,12.6520981 L148.113861,12.6520981 L148.113861,14.1022097 L149.267985,14.1022097 Z M147.186528,11.9155712 C147.186528,11.8423895 147.243103,11.7771084 147.320832,11.7771084 L149.346206,11.7771084 C150.19581,11.7771084 150.889465,12.4767659 150.889465,13.3444627 C150.889465,14.0151007 150.457529,14.5617603 149.841603,14.8169593 L150.811736,16.6683294 C150.861423,16.7630351 150.811736,16.8795181 150.691207,16.8795181 L149.947865,16.8795181 C149.884403,16.8795181 149.848982,16.8435603 149.834716,16.8141863 L148.892624,14.882291 L148.106974,14.882291 L148.106974,16.7412579 C148.106974,16.8141863 148.04302,16.8795181 147.972179,16.8795181 L147.320832,16.8795181 C147.243103,16.8795181 147.186528,16.8141863 147.186528,16.7412579 L147.186528,11.9155712 Z"
        id="Fill-33"></path>
      <path d="M153.587407,11.8834948 C153.594307,11.827077 153.637187,11.7771084 153.715061,11.7771084 L153.828422,11.7771084 C153.885595,11.7771084 153.927983,11.8058588 153.949176,11.848246 L155.510107,15.1928931 C155.523907,15.1928931 155.523907,15.1928931 155.5313,15.1928931 L157.091738,11.848246 C157.112931,11.8058588 157.148911,11.7771084 157.212492,11.7771084 L157.326346,11.7771084 C157.40422,11.7771084 157.446607,11.827077 157.454,11.8834948 L158.290899,16.6456749 C158.312093,16.7446275 158.255412,16.8081344 158.162752,16.8081344 L157.51758,16.8081344 C157.454,16.8081344 157.396826,16.752012 157.382533,16.7017972 L156.964084,14.0166864 C156.957183,14.0166864 156.94289,14.0166864 156.94289,14.0166864 L155.701342,16.8012421 C155.687048,16.8440724 155.644661,16.8795181 155.58108,16.8795181 L155.453426,16.8795181 C155.389353,16.8795181 155.353866,16.8440724 155.332672,16.8012421 L154.07683,14.0166864 C154.07683,14.0166864 154.062537,14.0166864 154.055637,14.0166864 L153.644087,16.7017972 C153.637187,16.752012 153.580507,16.8081344 153.516433,16.8081344 L152.878162,16.8081344 C152.785995,16.8081344 152.728821,16.7446275 152.743115,16.6456749 L153.587407,11.8834948"
        id="Fill-34"></path>
      <path d="M161.072539,11.9155712 C161.072539,11.8423895 161.139024,11.7771084 161.230369,11.7771084 L164.617645,11.7771084 C164.70899,11.7771084 164.775475,11.8423895 164.775475,11.9155712 L164.775475,12.5130275 C164.775475,12.5862092 164.70899,12.6520981 164.617645,12.6520981 L162.154224,12.6520981 L162.154224,13.8475678 L164.209484,13.8475678 C164.292735,13.8475678 164.367892,13.9129502 164.367892,13.9860812 L164.367892,14.5907798 C164.367892,14.6712036 164.292735,14.7292932 164.209484,14.7292932 L162.154224,14.7292932 L162.154224,16.0052375 L164.617645,16.0052375 C164.70899,16.0052375 164.775475,16.0705692 164.775475,16.1437003 L164.775475,16.7412579 C164.775475,16.8141863 164.70899,16.8795181 164.617645,16.8795181 L161.230369,16.8795181 C161.139024,16.8795181 161.072539,16.8141863 161.072539,16.7412579 L161.072539,11.9155712"
        id="Fill-35"></path>
      <path d="M171.908763,15.9907024 C173.000849,15.9907024 173.798755,15.2759528 173.798755,14.3210964 C173.798755,13.3735328 173.000849,12.6593403 171.908763,12.6593403 L170.950926,12.6593403 L170.950926,15.9907024 L171.908763,15.9907024 Z M169.867012,11.9155712 C169.867012,11.8423895 169.93472,11.7771084 170.018188,11.7771084 L172.009742,11.7771084 C173.631236,11.7771084 174.958549,12.9217815 174.958549,14.3210964 C174.958549,15.7355034 173.631236,16.8795181 172.009742,16.8795181 L170.018188,16.8795181 C169.93472,16.8795181 169.867012,16.8141863 169.867012,16.7412579 L169.867012,11.9155712 Z"
        id="Fill-36"></path>
      <path d="M176.810017,11.9155712 C176.810017,11.8423895 176.876502,11.7771084 176.967847,11.7771084 L180.355123,11.7771084 C180.446468,11.7771084 180.512953,11.8423895 180.512953,11.9155712 L180.512953,12.5130275 C180.512953,12.5862092 180.446468,12.6520981 180.355123,12.6520981 L177.891702,12.6520981 L177.891702,13.8475678 L179.946962,13.8475678 C180.030213,13.8475678 180.10537,13.9129502 180.10537,13.9860812 L180.10537,14.5907798 C180.10537,14.6712036 180.030213,14.7292932 179.946962,14.7292932 L177.891702,14.7292932 L177.891702,16.0052375 L180.355123,16.0052375 C180.446468,16.0052375 180.512953,16.0705692 180.512953,16.1437003 L180.512953,16.7412579 C180.512953,16.8141863 180.446468,16.8795181 180.355123,16.8795181 L176.967847,16.8795181 C176.876502,16.8795181 176.810017,16.8141863 176.810017,16.7412579 L176.810017,11.9155712"
        id="Fill-37"></path>
      <path d="M186.530225,11.9155712 C186.530225,11.8423895 186.594859,11.7771084 186.682895,11.7771084 L187.420617,11.7771084 C187.500852,11.7771084 187.57273,11.8423895 187.57273,11.9155712 L187.57273,16.0052375 L189.61818,16.0052375 C189.706217,16.0052375 189.770294,16.0705692 189.770294,16.1437003 L189.770294,16.7412579 C189.770294,16.8141863 189.706217,16.8795181 189.61818,16.8795181 L186.682895,16.8795181 C186.594859,16.8795181 186.530225,16.8141863 186.530225,16.7412579 L186.530225,11.9155712"
        id="Fill-38"></path>
      <path d="M194.934727,15.1621219 L194.171117,13.5810809 L194.148313,13.5810809 L193.400507,15.1621219 L194.934727,15.1621219 Z M191.637242,16.6927849 L194.01096,11.8563951 C194.033764,11.8134565 194.071947,11.7771084 194.140889,11.7771084 L194.217255,11.7771084 C194.293621,11.7771084 194.32385,11.8134565 194.347184,11.8563951 L196.698098,16.6927849 C196.743705,16.7866508 196.682718,16.8795181 196.568169,16.8795181 L195.904207,16.8795181 C195.789658,16.8795181 195.736095,16.8365794 195.682533,16.7357235 L195.308656,15.9597822 L193.026684,15.9597822 L192.652224,16.7357235 C192.622049,16.8081201 192.553107,16.8795181 192.431133,16.8795181 L191.767171,16.8795181 C191.652091,16.8795181 191.591104,16.7866508 191.637242,16.6927849 Z"
        id="Fill-39"></path>
      <polygon id="Fill-40" points="199.027634 15.0240964 212.450777 15.0240964 212.450777 13.6325301 199.027634 13.6325301"></polygon>
      <polygon id="Fill-41" points="103.214162 15.0240964 116.637306 15.0240964 116.637306 13.6325301 103.214162 13.6325301"></polygon>
      <path d="M40.653744,25.6927711 L36.1440801,14.0959274 C36.0176791,13.7711222 36.1629384,13.3987064 36.467728,13.2641807 L38.6761789,12.2896022 C38.9814783,12.1550222 39.3311199,12.3093088 39.457521,12.6341683 L43.9671848,24.2307947 L40.653744,25.6927711"
        id="Fill-42"></path>
      <path d="M44.1287627,71.6907218 C43.9139203,72.2075104 43.1796964,72.2075104 42.964854,71.6907218 L30.7080955,42.1866413 C29.9867621,40.4863263 29.6183074,38.6671231 29.6183074,36.7932956 C29.6183074,34.9194682 29.9867621,33.100265 30.7134665,31.3870972 C31.4149269,29.7328379 32.4193151,28.2478069 33.6976274,26.9732401 C34.9759396,25.6981377 36.4653345,24.6972278 38.1244549,23.9978227 C39.447884,23.439798 40.8341546,23.0933086 42.260171,22.9637098 L46.5532591,12.6287935 C46.6864614,12.3083845 47.0549161,12.1561862 47.3766425,12.2889447 L49.7039228,13.2503322 C50.0251122,13.3830371 50.1776502,13.7504123 50.0449851,14.0708213 L44.8092759,26.673342 L43.5465398,26.673342 C42.1758453,26.673342 40.846508,26.9411081 39.5966624,27.4680719 C38.3881739,27.9778986 37.3026827,28.7078291 36.3702667,29.6375132 C35.4373136,30.5671972 34.7052382,31.649508 34.1939133,32.8549912 C33.665401,34.1011748 33.3973851,35.4260817 33.3973851,36.7932956 C33.3973851,38.1605096 33.665401,39.4854165 34.1939133,40.7321356 L43.5465398,63.244842 L53.2160588,39.9695377 C53.313275,39.7349745 53.5431563,39.5818123 53.7977446,39.5818123 L84.2366149,39.5818123 L84.2366149,43.3498175 L55.9021258,43.3498175 L44.1287627,71.6907218"
        id="Fill-43"></path>
      <path d="M43.0448679,3.94745231 C43.0427429,3.94745231 43.0411492,3.94745231 43.038493,3.94745231 C21.8757974,3.95093204 4.65849285,21.3009821 4.65849285,42.6237081 C4.65849285,63.9496462 21.875638,81.2995892 43.038493,81.2995892 C53.2442246,81.2995892 62.829463,77.2780899 70.0283526,69.9749357 C77.1948364,62.7049729 81.2402607,52.9799254 81.4187587,42.5910522 C81.5924756,32.4687799 77.7722988,22.8797096 70.6621269,15.5904744 C67.1081035,11.9465528 62.9367743,9.08080626 58.2650132,7.07235857 C53.4413162,4.9989202 48.3206537,3.94745231 43.0448679,3.94745231 Z M43.038493,85.0662651 C19.8146232,85.0662651 0.920552677,66.0267785 0.920552677,42.6237081 C0.920552677,19.2243852 19.8144107,0.184577364 43.0379617,0.180722892 C43.0400867,0.180722892 43.0427429,0.180722892 43.0448679,0.180722892 C48.8279919,0.180722892 54.4416489,1.33369189 59.731247,3.60761634 C64.855097,5.81023307 69.4296405,8.95328747 73.3279101,12.9497327 C81.1467617,20.9653218 85.3478406,31.5153334 85.1560614,42.6563641 C84.9605636,54.0217036 80.5299872,64.666471 72.6803235,72.6297035 C64.7743479,80.6496823 54.2472136,85.0662651 43.038493,85.0662651 Z"
        id="Fill-44"></path>
      <path d="M49.8876617,29.6240073 C47.9998977,27.8497777 45.5915403,26.8799268 43.0414508,26.8799268 L43.0414508,22.8373494 C46.593478,22.8373494 49.9448997,24.2082405 52.5527724,26.7133055 C52.8226087,26.9724304 52.8324209,27.4177114 52.5740322,27.6900511 L50.7631307,29.5987268 C50.5238213,29.850957 50.1400541,29.861299 49.8876617,29.6240073"
        id="Fill-45"></path>
    </g>
  </g>
</svg>